<svg width="105" height="42" viewBox="0 0 105 42" fill="none" xmlns="http://www.w3.org/2000/svg">
<path d="M38.9202 0.889019H2.05276C1.12644 0.889019 0.375507 1.63995 0.375507 2.56628V39.4337C0.375507 40.36 1.12644 41.111 2.05276 41.111H38.9202C39.8465 41.111 40.5975 40.36 40.5975 39.4337V2.56628C40.5975 1.63995 39.8465 0.889019 38.9202 0.889019Z" fill="#0084F8"/>
<path d="M32.8223 11.9522L26.0167 15.8805C24.6398 14.3963 22.6716 13.4672 20.4862 13.4672C18.3008 13.4672 16.3326 14.3963 14.957 15.8819L8.1514 11.9522C7.9275 11.8235 7.9275 11.5004 8.1514 11.3717L18.8102 5.2177C19.848 4.6184 21.1257 4.6184 22.1621 5.2177L32.8223 11.3717C33.0448 11.5004 33.0448 11.8235 32.8223 11.9522Z" fill="white"/>
<path d="M35.0016 15.1448V27.454C35.0016 28.6513 34.3621 29.7574 33.3257 30.3567L22.6655 36.5107C22.4429 36.6394 22.1627 36.4785 22.1627 36.2197V28.3631C25.5213 27.6015 28.0284 24.5983 28.0284 21.0091C28.0284 20.2342 27.9118 19.4861 27.6946 18.7835L34.4988 14.8552C34.7214 14.7265 35.0016 14.8873 35.0016 15.1448Z" fill="white"/>
<path d="M18.8106 28.3631V36.2197C18.8106 36.4785 18.5317 36.6394 18.3078 36.5107L7.649 30.3567C6.61261 29.7574 5.97308 28.6513 5.97308 27.454V15.1448C5.97308 14.8873 6.25195 14.7265 6.47586 14.8552L13.2787 18.7835C13.0615 19.4861 12.9449 20.2342 12.9449 21.0091C12.9449 24.5983 15.4521 27.6015 18.8106 28.3631Z" fill="white"/>
<path d="M20.4863 25.199C22.8003 25.199 24.6761 23.3231 24.6761 21.0092C24.6761 18.6952 22.8003 16.8194 20.4863 16.8194C18.1724 16.8194 16.2965 18.6952 16.2965 21.0092C16.2965 23.3231 18.1724 25.199 20.4863 25.199Z" fill="white"/>
<path d="M71.5394 20.2272C73.6336 20.2272 75.339 21.9313 75.339 24.0268C75.339 26.1224 73.6349 27.8265 71.5394 27.8265C69.4438 27.8265 67.7397 26.1224 67.7397 24.0268C67.7397 21.9313 69.4438 20.2272 71.5394 20.2272ZM71.5394 16.634C67.4568 16.634 64.1465 19.9443 64.1465 24.0268C64.1465 28.1094 67.4568 31.4196 71.5394 31.4196C75.6219 31.4196 78.9322 28.1094 78.9322 24.0268C78.9322 19.9443 75.6219 16.634 71.5394 16.634Z" fill="#204496"/>
<path d="M64.506 31.1262H59.9502C59.8349 31.1262 59.7276 31.0672 59.666 30.9693L54.1234 22.1285L51.8575 24.4171V30.791C51.8575 30.9773 51.7074 31.1262 51.5223 31.1262H47.6771C47.4921 31.1262 47.3419 30.9773 47.3419 30.791V11.4201C47.3419 11.2351 47.4921 11.0849 47.6771 11.0849H51.5223C51.7074 11.0849 51.8575 11.2351 51.8575 11.4201V18.6761L58.8883 11.1908C58.9527 11.1238 59.0412 11.0849 59.1337 11.0849H64.2513C64.5503 11.0849 64.6991 11.4442 64.4899 11.6561L57.3867 18.8316L64.7903 30.6127C64.9297 30.8366 64.7701 31.1262 64.506 31.1262Z" fill="#204496"/>
<path d="M91.4214 17.8313L89.6597 21.1604C89.5739 21.3212 89.3768 21.3802 89.2119 21.3025C89.0644 21.2328 88.8914 21.1671 88.6917 21.1054C88.3471 21.0008 88.0025 20.9472 87.6566 20.9472C87.3308 20.9472 87.0198 21.0048 86.7221 21.1201C86.4258 21.2354 86.1657 21.4124 85.9458 21.6524C85.7259 21.8924 85.5476 22.1941 85.4149 22.5574C85.3184 22.8269 85.246 23.1661 85.199 23.579C85.1508 23.9906 85.1266 24.5993 85.1266 25.4051V30.7908C85.1266 30.9772 84.9765 31.126 84.7915 31.126H81.1205C80.9355 31.126 80.7853 30.9772 80.7853 30.7908V17.2856C80.7853 17.1006 80.9355 16.9505 81.1205 16.9505H84.8196C85.006 16.9505 85.1548 17.1006 85.1548 17.2856V18.8503C85.187 18.7913 85.2205 18.7336 85.2567 18.676C85.6482 18.0432 86.1563 17.5457 86.7798 17.1811C87.4032 16.8164 88.0494 16.634 88.7211 16.634C89.2199 16.634 89.6932 16.7064 90.145 16.8499C90.5124 16.9679 90.8958 17.1462 91.2967 17.3849C91.4495 17.476 91.5045 17.6731 91.4214 17.8313Z" fill="#204496"/>
<path d="M104.277 21.1483C103.989 20.2285 103.563 19.4335 102.998 18.7618C102.433 18.0914 101.727 17.5685 100.884 17.1945C100.041 16.8217 99.0634 16.634 97.9519 16.634C96.6863 16.634 95.6083 16.8553 94.7167 17.2964C93.8251 17.7375 93.1065 18.322 92.5595 19.05C92.0138 19.7781 91.6116 20.5838 91.3528 21.4647C91.094 22.3469 90.964 23.2291 90.964 24.11C90.964 24.9908 91.094 25.9267 91.3528 26.7995C91.6116 27.671 92.0285 28.458 92.6037 29.1565C93.1789 29.8564 93.9257 30.4128 94.8454 30.8244C95.7665 31.2373 96.878 31.4424 98.1812 31.4424C99.0245 31.4424 99.7673 31.3808 100.409 31.2561C101.052 31.1314 101.679 30.9209 102.293 30.6233C102.831 30.3632 103.421 30.0253 104.062 29.6097C104.214 29.5104 104.263 29.3093 104.169 29.1538L102.683 26.6949C102.584 26.53 102.367 26.4844 102.207 26.593C101.735 26.9161 101.199 27.1762 100.597 27.3747C99.8678 27.6146 99.1599 27.734 98.4694 27.734C97.6824 27.734 96.9879 27.561 96.3846 27.2165C95.7799 26.8705 95.4206 26.3155 95.3066 25.5486H104.323C104.496 25.5486 104.639 25.4172 104.657 25.2456C104.676 25.0673 104.688 24.909 104.694 24.7723C104.704 24.5618 104.709 24.3593 104.709 24.1676C104.709 23.0749 104.564 22.0694 104.277 21.1483ZM95.249 22.3563C95.3066 22.0506 95.43 21.7342 95.6217 21.4071C95.8134 21.0826 96.1057 20.8037 96.4999 20.5731C96.8927 20.3439 97.4049 20.2285 98.0377 20.2285C98.3823 20.2285 98.7081 20.2822 99.0151 20.3868C99.3221 20.4927 99.5956 20.6415 99.8343 20.8332C100.074 21.0249 100.261 21.2596 100.396 21.5371C100.513 21.7771 100.578 22.0506 100.593 22.3563H95.249Z" fill="#204496"/>
</svg>
